<svg width="14" height="14" viewBox="0 0 14 14" fill="none" xmlns="http://www.w3.org/2000/svg">
<path d="M13.1404 3.343C13.0614 2.02925 11.9644 1 10.6432 1H9.99991V0.5C9.99991 0.367392 9.94723 0.240215 9.85346 0.146447C9.75969 0.0526784 9.63252 0 9.49991 0C9.3673 0 9.24012 0.0526784 9.14635 0.146447C9.05259 0.240215 8.99991 0.367392 8.99991 0.5V1H4.99991V0.5C4.99991 0.367392 4.94723 0.240215 4.85346 0.146447C4.75969 0.0526784 4.63252 0 4.49991 0C4.3673 0 4.24012 0.0526784 4.14635 0.146447C4.05259 0.240215 3.99991 0.367392 3.99991 0.5V1H3.35666C2.03516 1 0.938157 2.02925 0.859407 3.343C0.711157 5.814 0.713907 8.3205 0.867657 10.7927C0.945657 12.0482 1.95141 13.054 3.20691 13.132C4.46516 13.2102 5.73241 13.2492 6.99966 13.2492C8.26666 13.2492 9.53416 13.2102 10.7924 13.132C12.0479 13.054 13.0537 12.0482 13.1317 10.7927C13.2857 8.32175 13.2884 5.8155 13.1404 3.343ZM12.1339 10.7307C12.1107 11.0953 11.9555 11.4389 11.6972 11.6972C11.4388 11.9556 11.0952 12.1108 10.7307 12.134C8.25516 12.2877 5.74466 12.2877 3.26916 12.134C2.90459 12.1108 2.56097 11.9556 2.30266 11.6972C2.04435 11.4389 1.88907 11.0953 1.86591 10.7307C1.74871 8.82283 1.72227 6.91043 1.78666 5H12.2134C12.2764 6.91 12.2522 8.83075 12.1339 10.7307ZM4.49991 3C4.63252 3 4.75969 2.94732 4.85346 2.85355C4.94723 2.75978 4.99991 2.63261 4.99991 2.5V2H8.99991V2.5C8.99991 2.63261 9.05259 2.75978 9.14635 2.85355C9.24012 2.94732 9.3673 3 9.49991 3C9.63252 3 9.75969 2.94732 9.85346 2.85355C9.94723 2.75978 9.99991 2.63261 9.99991 2.5V2H10.6432C11.4364 2 12.0949 2.61625 12.1422 3.40275C12.1539 3.60125 12.1589 3.801 12.1687 4H1.83116C1.84116 3.801 1.84591 3.60125 1.85766 3.40275C1.90491 2.61625 2.56316 2 3.35666 2H3.99991V2.5C3.99991 2.63261 4.05259 2.75978 4.14635 2.85355C4.24012 2.94732 4.3673 3 4.49991 3Z" fill="#999999"/>
<path d="M4.5 8C4.91421 8 5.25 7.66421 5.25 7.25C5.25 6.83579 4.91421 6.5 4.5 6.5C4.08579 6.5 3.75 6.83579 3.75 7.25C3.75 7.66421 4.08579 8 4.5 8Z" fill="#999999"/>
<path d="M7 8C7.41421 8 7.75 7.66421 7.75 7.25C7.75 6.83579 7.41421 6.5 7 6.5C6.58579 6.5 6.25 6.83579 6.25 7.25C6.25 7.66421 6.58579 8 7 8Z" fill="#999999"/>
<path d="M4.5 10.5C4.91421 10.5 5.25 10.1642 5.25 9.75C5.25 9.33579 4.91421 9 4.5 9C4.08579 9 3.75 9.33579 3.75 9.75C3.75 10.1642 4.08579 10.5 4.5 10.5Z" fill="#999999"/>
<path d="M9.5 8C9.91421 8 10.25 7.66421 10.25 7.25C10.25 6.83579 9.91421 6.5 9.5 6.5C9.08579 6.5 8.75 6.83579 8.75 7.25C8.75 7.66421 9.08579 8 9.5 8Z" fill="#999999"/>
<path d="M9.5 10.5C9.91421 10.5 10.25 10.1642 10.25 9.75C10.25 9.33579 9.91421 9 9.5 9C9.08579 9 8.75 9.33579 8.75 9.75C8.75 10.1642 9.08579 10.5 9.5 10.5Z" fill="#999999"/>
<path d="M7 10.5C7.41421 10.5 7.75 10.1642 7.75 9.75C7.75 9.33579 7.41421 9 7 9C6.58579 9 6.25 9.33579 6.25 9.75C6.25 10.1642 6.58579 10.5 7 10.5Z" fill="#999999"/>
</svg>
